<svg xmlns="http://www.w3.org/2000/svg" xmlns:xlink="http://www.w3.org/1999/xlink" width="500" zoomAndPan="magnify" viewBox="0 0 375 374.999991" height="500" preserveAspectRatio="xMidYMid meet" version="1.0"><defs><clipPath id="a68cbe7517"><path d="M 108 99 L 267 99 L 267 242.800781 L 108 242.800781 Z M 108 99 " clip-rule="nonzero"/></clipPath></defs><rect x="-37.5" width="450" fill="#ffffff" y="-37.499999" height="449.999989" fill-opacity="1"/><rect x="-37.5" width="450" fill="#ffffff" y="-37.499999" height="449.999989" fill-opacity="1"/><rect x="-37.5" width="450" fill="#000000" y="-37.499999" height="449.999989" fill-opacity="1"/><g clip-path="url(#a68cbe7517)"><path fill="#ffffff" d="M 196.039062 100.246094 C 198.925781 98.992188 202.277344 99.570312 204.578125 101.71875 L 263.828125 157.105469 C 265.425781 158.601562 266.335938 160.695312 266.335938 162.890625 C 266.335938 165.082031 265.425781 167.175781 263.828125 168.671875 L 204.578125 224.058594 C 202.277344 226.207031 198.925781 226.785156 196.039062 225.53125 C 193.15625 224.273438 191.289062 221.425781 191.289062 218.273438 L 191.289062 186.625 L 177.640625 186.625 C 162.046875 186.625 147.652344 194.992188 139.914062 208.550781 L 123.101562 238.023438 C 121.324219 241.136719 117.675781 242.664062 114.214844 241.746094 C 110.753906 240.824219 108.34375 237.683594 108.34375 234.097656 L 108.34375 190.582031 C 108.34375 157.808594 134.867188 131.242188 167.589844 131.242188 L 191.289062 131.242188 L 191.289062 107.503906 C 191.289062 104.355469 193.15625 101.503906 196.039062 100.246094 Z M 207.089844 125.710938 L 207.089844 139.152344 C 207.089844 143.523438 203.550781 147.066406 199.1875 147.066406 L 167.589844 147.066406 C 143.59375 147.066406 124.140625 166.546875 124.140625 190.582031 L 124.140625 204.304688 L 126.199219 200.699219 C 136.746094 182.210938 156.378906 170.800781 177.640625 170.800781 L 199.1875 170.800781 C 203.550781 170.800781 207.089844 174.34375 207.089844 178.714844 L 207.089844 200.066406 L 246.859375 162.890625 Z M 207.089844 125.710938 " fill-opacity="1" fill-rule="evenodd"/></g></svg>